{"title":"Conquest.of.The.Skies.2014.DOCU.BRRip.x264-RARBG","uid":11884338,"size":1478521752,"categoryP":"video","categoryS":"hd___tv_shows","magnet":"?xt=urn:btih:c749fdae44fb8a682a364da6f683addd8adac50a&amp;dn=Conquest.of.The.Skies.2014.DOCU.BRRip.x264-RARBG&amp;tr=udp%3A%2F%2Ftracker.openbittorrent.com%3A80&amp;tr=udp%3A%2F%2Fopen.demonii.com%3A1337&amp;tr=udp%3A%2F%2Ftracker.coppersurfer.tk%3A6969&amp;tr=udp%3A%2F%2Fexodus.desync.com%3A6969","seeders":11,"leechers":3,"uploader":"vickey1992","files":4,"time":1430771366,"description":"Video\nID                                       : 1\nFormat                                   : AVC\nFormat/Info                              : Advanced Video Codec\nFormat profile                           : &lt;a class=&quot;__cf_email__&quot; href=&quot;/cdn-cgi/l/email-protection&quot; data-cfemail=&quot;2d65444a456d6119031c&quot;&gt;[email&amp;#160;protected]&lt;/a&gt;&lt;script cf-hash='f9e31' type=&quot;text/javascript&quot;&gt;\n/* &lt;![CDATA[ */!function(){try{var t=&quot;currentScript&quot;in document?document.currentScript:function(){for(var t=document.getElementsByTagName(&quot;script&quot;),e=t.length;e--;)if(t[e].getAttribute(&quot;cf-hash&quot;))return t[e]}();if(t&amp;&amp;t.previousSibling){var e,r,n,i,c=t.previousSibling,a=c.getAttribute(&quot;data-cfemail&quot;);if(a){for(e=&quot;&quot;,r=parseInt(a.substr(0,2),16),n=2;a.length-n;n+=2)i=parseInt(a.substr(n,2),16)^r,e+=String.fromCharCode(i);e=document.createTextNode(e),c.parentNode.replaceChild(e,c)}}}catch(u){}}();/* ]]&gt; */&lt;/script&gt;\nFormat settings, CABAC                   : Yes\nFormat settings, ReFrames                : 4 frames\nCodec ID                                 : V_MPEG4/ISO/AVC\nDuration                                 : 2h 38mn\nBit rate                                 : 5 500 Kbps\nWidth                                    : 1 280 pixels\nHeight                                   : 720 pixels\nDisplay aspect ratio                     : 16:9\nFrame rate mode                          : Constant\nFrame rate                               : 23.976 fps\nColor space                              : YUV\nChroma subsampling                       : 4:2:0\nBit depth                                : 8 bits\nScan type                                : Progressive\nBits/(Pixel*Frame)                       : 0.249\nStream size                              : 5.97 GiB (77%)\nTitle                                    : Conquest.of.The.Skies.2014.DOCU.720p.BluRay.x264.DTS-RARBG\nWriting library                          : x264 core 142 r2495 6a301b6\nEncoding settings                        : cabac=1 / ref=4 / deblock=1:-2:-2 / analyse=0x3:0x113 / me=umh / subme=7 / psy=1 / psy_rd=1.00:0.15 / mixed_ref=1 / me_range=16 / chroma_me=1 / trellis=1 / 8x8dct=1 / cqm=0 / deadzone=21,11 / fast_pskip=1 / chroma_qp_offset=-3 / threads=12 / lookahead_threads=3 / sliced_threads=0 / nr=0 / decimate=1 / interlaced=0 / bluray_compat=0 / constrained_intra=0 / bframes=3 / b_pyramid=2 / b_adapt=2 / b_bias=0 / direct=3 / weightb=1 / open_gop=0 / weightp=2 / keyint=250 / keyint_min=25 / scenecut=40 / intra_refresh=0 / rc_lookahead=50 / rc=abr / mbtree=1 / bitrate=5500 / ratetol=1.0 / qcomp=0.60 / qpmin=0 / qpmax=69 / qpstep=4 / vbv_maxrate=31250 / vbv_bufsize=31250 / nal_hrd=none / filler=0 / ip_ratio=1.40 / aq=1:1.00\nLanguage                                 : English\nDefault                                  : Yes\nForced                                   : No\n\nAudio\nID                                       : 2\nFormat                                   : DTS\nFormat/Info                              : Digital Theater Systems\nMode                                     : 16\nFormat settings, Endianness              : Big\nCodec ID                                 : A_DTS\nDuration                                 : 2h 38mn\nBit rate mode                            : Constant\nBit rate                                 : 1 509 Kbps\nChannel(s)                               : 6 channels\nChannel positions                        : Front: L C R, Side: L R, LFE\nSampling rate                            : 48.0 KHz\nBit depth                                : 16 bits\nCompression mode                         : Lossy\nStream size                              : 1.67 GiB (21%)\nTitle                                    : Conquest.of.The.Skies.2014.DOCU.720p.BluRay.x264.DTS-RARBG\nLanguage                                 : English\nDefault                                  : Yes\nForced                                   : No\n\nMenu\n00:00:00.000                             : en01)00:00:00:000\n00:11:15.424                             : en02)00:11:15:424\n00:14:04.093                             : en03)00:14:04:093\n00:19:57.738                             : en04)00:19:57:738\n00:39:27.114                             : en05)00:39:27:114\n00:42:16.325                             : en06)00:42:16:325\n00:53:16.818                             : en07)00:53:16:818\n01:00:38.176                             : en001:00:38:176\n01:10:22.801                             : en09)01:10:22:801\n01:16:55.902                             : en10)01:16:55:902\n01:27:30.495                             : en11)01:27:30:495\n01:38:05.337                             : en12)01:38:05:337\n01:45:45.839                             : en13)01:45:45:839\n01:56:28.439                             : en14)01:56:28:439\n02:08:01.173                             : en15)02:08:01:173\n02:16:03.822                             : en16)02:16:03:822\n02:20:56.990                             : en17)02:20:56:990\n02:34:05.402                             : en102:34:05:402\nNotes:\nGreetz to all!","torrent":{"xt":"urn:btih:c749fdae44fb8a682a364da6f683addd8adac50a","amp;dn":"Conquest.of.The.Skies.2014.DOCU.BRRip.x264-RARBG","amp;tr":["udp%3A%2F%2Ftracker.openbittorrent.com%3A80","udp%3A%2F%2Fopen.demonii.com%3A1337","udp%3A%2F%2Ftracker.coppersurfer.tk%3A6969","udp%3A%2F%2Fexodus.desync.com%3A6969"],"infoHash":"c749fdae44fb8a682a364da6f683addd8adac50a","infoHashBuffer":{"type":"Buffer","data":[199,73,253,174,68,251,138,104,42,54,77,166,246,131,173,221,138,218,197,10]},"announce":[],"urlList":[]}}